<svg width="49" height="48" viewBox="0 0 49 48" fill="none" xmlns="http://www.w3.org/2000/svg">
<path d="M24.5 48C37.7548 48 48.5 37.2548 48.5 24C48.5 10.7452 37.7548 0 24.5 0C11.2452 0 0.5 10.7452 0.5 24C0.5 37.2548 11.2452 48 24.5 48Z" fill="#018CB8"/>
<path d="M37.1 19.6132C38.1054 18.6499 38.7315 17.2948 38.7315 15.7933C38.7315 12.8696 36.3628 10.5 33.4402 10.5C30.9021 10.5 28.7803 12.2891 28.2688 14.6746C26.9883 14.41 25.6408 14.2671 24.2491 14.2671C22.8628 14.2671 21.5223 14.41 20.2454 14.6711C19.7356 12.2785 17.612 10.4841 15.0687 10.4841C12.1461 10.4841 9.77735 12.8537 9.77735 15.7774C9.77735 17.2789 10.4035 18.634 11.4071 19.5974C9.94138 21.3477 9.08948 23.4191 9.08948 25.6387C9.08948 31.9201 15.8765 37.0104 24.2474 37.0104C32.6183 37.0104 39.4053 31.9183 39.4053 25.6387C39.4035 23.4244 38.5587 21.36 37.1 19.6132Z" fill="#C7D900"/>
<path d="M14.1868 18.4241C15.648 18.4241 16.8325 17.2392 16.8325 15.7775C16.8325 14.3158 15.648 13.1309 14.1868 13.1309C12.7256 13.1309 11.5411 14.3158 11.5411 15.7775C11.5411 17.2392 12.7256 18.4241 14.1868 18.4241Z" fill="black"/>
<path d="M13.67 16.1426C14.157 16.1426 14.5519 15.7476 14.5519 15.2604C14.5519 14.7732 14.157 14.3782 13.67 14.3782C13.1829 14.3782 12.7881 14.7732 12.7881 15.2604C12.7881 15.7476 13.1829 16.1426 13.67 16.1426Z" fill="#FEF9EA"/>
<path d="M34.3221 18.4241C35.7833 18.4241 36.9678 17.2392 36.9678 15.7775C36.9678 14.3158 35.7833 13.1309 34.3221 13.1309C32.861 13.1309 31.6765 14.3158 31.6765 15.7775C31.6765 17.2392 32.861 18.4241 34.3221 18.4241Z" fill="black"/>
<path d="M33.8052 16.1426C34.2923 16.1426 34.6871 15.7476 34.6871 15.2604C34.6871 14.7732 34.2923 14.3782 33.8052 14.3782C33.3182 14.3782 32.9233 14.7732 32.9233 15.2604C32.9233 15.7476 33.3182 16.1426 33.8052 16.1426Z" fill="#FEF9EA"/>
<path d="M34.9764 24.2678C34.9764 27.9731 30.1719 30.9761 24.2474 30.9761C18.3228 30.9761 13.5183 27.9731 13.5183 24.2678C13.5183 20.5625 34.9764 20.5643 34.9764 24.2678Z" fill="black"/>
<path d="M24.2474 24.9242C20.2048 24.9242 16.9189 26.7962 16.843 29.12C18.7691 30.2686 21.3759 30.9762 24.2474 30.9762C27.1188 30.9762 29.7256 30.2686 31.6517 29.12C31.5741 26.7962 28.2899 24.9242 24.2474 24.9242Z" fill="#FF988A"/>
<path d="M23.0288 19.3063C23.2724 19.3063 23.4699 19.1088 23.4699 18.8652C23.4699 18.6216 23.2724 18.4241 23.0288 18.4241C22.7851 18.4241 22.5876 18.6216 22.5876 18.8652C22.5876 19.1088 22.7851 19.3063 23.0288 19.3063Z" fill="black"/>
<path d="M25.4647 19.3063C25.7083 19.3063 25.9058 19.1088 25.9058 18.8652C25.9058 18.6216 25.7083 18.4241 25.4647 18.4241C25.2211 18.4241 25.0236 18.6216 25.0236 18.8652C25.0236 19.1088 25.2211 19.3063 25.4647 19.3063Z" fill="black"/>
</svg>
