<svg width="151" height="152" viewBox="0 0 151 152" fill="none" xmlns="http://www.w3.org/2000/svg">
<path d="M75.4032 96C101.913 96 123.403 74.5097 123.403 48C123.403 21.4903 101.913 0 75.4032 0C48.8935 0 27.4032 21.4903 27.4032 48C27.4032 74.5097 48.8935 96 75.4032 96Z" fill="#018CB8"/>
<path d="M100.603 39.2266C102.614 37.2999 103.866 34.5897 103.866 31.5867C103.866 25.7394 99.1287 21.0001 93.2835 21.0001C88.2074 21.0001 83.9638 24.5784 82.9408 29.3494C80.3798 28.8201 77.6847 28.5342 74.9015 28.5342C72.1288 28.5342 69.4479 28.8201 66.8939 29.3423C65.8745 24.5572 61.6273 20.9684 56.5406 20.9684C50.6954 20.9684 45.9579 25.7076 45.9579 31.5549C45.9579 34.558 47.2102 37.2681 49.2174 39.1949C46.286 42.6955 44.5822 46.8383 44.5822 51.2776C44.5822 63.8403 58.1562 74.021 74.8979 74.021C91.6397 74.021 105.214 63.8368 105.214 51.2776C105.21 46.8489 103.521 42.7202 100.603 39.2266Z" fill="#C7D900"/>
<path d="M54.7769 36.8482C57.6992 36.8482 60.0683 34.4784 60.0683 31.555C60.0683 28.6316 57.6992 26.2617 54.7769 26.2617C51.8546 26.2617 49.4856 28.6316 49.4856 31.555C49.4856 34.4784 51.8546 36.8482 54.7769 36.8482Z" fill="black"/>
<path d="M53.7433 32.2854C54.7174 32.2854 55.507 31.4955 55.507 30.521C55.507 29.5466 54.7174 28.7566 53.7433 28.7566C52.7692 28.7566 51.9795 29.5466 51.9795 30.521C51.9795 31.4955 52.7692 32.2854 53.7433 32.2854Z" fill="#FEF9EA"/>
<path d="M95.0474 36.8482C97.9698 36.8482 100.339 34.4784 100.339 31.555C100.339 28.6316 97.9698 26.2617 95.0474 26.2617C92.1251 26.2617 89.7561 28.6316 89.7561 31.555C89.7561 34.4784 92.1251 36.8482 95.0474 36.8482Z" fill="black"/>
<path d="M94.0135 32.2854C94.9876 32.2854 95.7773 31.4955 95.7773 30.521C95.7773 29.5466 94.9876 28.7566 94.0135 28.7566C93.0394 28.7566 92.2498 29.5466 92.2498 30.521C92.2498 31.4955 93.0394 32.2854 94.0135 32.2854Z" fill="#FEF9EA"/>
<path d="M96.3561 48.5357C96.3561 55.9463 86.7471 61.9524 74.898 61.9524C63.049 61.9524 53.4399 55.9463 53.4399 48.5357C53.4399 41.1252 96.3561 41.1287 96.3561 48.5357Z" fill="black"/>
<path d="M74.898 49.8484C66.8129 49.8484 60.241 53.5925 60.0894 58.24C63.9414 60.5373 69.1552 61.9523 74.898 61.9523C80.6409 61.9523 85.8546 60.5373 89.7067 58.24C89.5515 53.5925 82.9832 49.8484 74.898 49.8484Z" fill="#FF988A"/>
<path d="M72.4607 38.6127C72.9479 38.6127 73.3429 38.2177 73.3429 37.7305C73.3429 37.2432 72.9479 36.8483 72.4607 36.8483C71.9735 36.8483 71.5785 37.2432 71.5785 37.7305C71.5785 38.2177 71.9735 38.6127 72.4607 38.6127Z" fill="black"/>
<path d="M77.3324 38.6127C77.8196 38.6127 78.2146 38.2177 78.2146 37.7305C78.2146 37.2432 77.8196 36.8483 77.3324 36.8483C76.8452 36.8483 76.4502 37.2432 76.4502 37.7305C76.4502 38.2177 76.8452 38.6127 77.3324 38.6127Z" fill="black"/>
<path d="M15.9711 115.822C18.1216 115.822 19.3838 116.423 19.7578 117.626C19.9448 118.227 20.0383 119.019 20.0383 120C20.0383 120.981 19.9293 121.773 19.7111 122.374C19.5241 122.944 19.2124 123.355 18.7761 123.608C18.1216 123.988 17.171 124.178 15.9243 124.178L12.9323 123.988V136.712C12.9323 137.915 12.7765 138.817 12.4648 139.418C12.1843 139.988 11.7324 140.368 11.109 140.558C10.5169 140.748 9.73769 140.843 8.77151 140.843C7.80534 140.843 7.02617 140.748 6.43399 140.558C5.87299 140.336 5.46782 140.004 5.21849 139.561C4.96915 139.086 4.81332 138.659 4.75098 138.279C4.71981 137.899 4.70423 137.345 4.70423 136.617V124.036H3.02122C2.21088 123.972 1.63429 123.782 1.29146 123.466C0.699284 122.864 0.403198 121.709 0.403198 120C0.403198 117.405 1.32262 116.107 3.16147 116.107H4.70423V113.591C4.70423 111.153 5.56132 108.954 7.2755 106.991C8.98968 104.997 11.4674 104 14.7088 104C15.4256 104 15.9555 104.032 16.2983 104.095C16.6723 104.127 17.0931 104.269 17.5606 104.522C18.4021 104.934 18.8228 106.152 18.8228 108.178C18.8228 109.697 18.5579 110.789 18.0281 111.454C17.5917 111.96 16.9061 112.245 15.9711 112.309C15.6906 112.309 15.2542 112.309 14.6621 112.309C13.5089 112.309 12.9323 112.704 12.9323 113.496V116.107L15.9711 115.822Z" fill="black"/>
<path d="M39.3554 116.059C39.9475 116.249 40.4306 116.582 40.8046 117.056C41.2098 117.5 41.4124 118.227 41.4124 119.24C41.4124 120.253 41.1163 121.361 40.5241 122.564C39.932 123.767 39.0749 124.368 37.9529 124.368C37.3919 124.368 36.8464 124.241 36.3166 123.988C35.8179 123.735 35.1478 123.608 34.3063 123.608C33.4648 123.608 32.6701 123.909 31.9221 124.51C31.2052 125.112 30.8468 125.84 30.8468 126.694V136.665C30.8468 137.393 30.8156 137.947 30.7533 138.326C30.7221 138.675 30.5819 139.086 30.3326 139.561C29.8651 140.384 28.6495 140.795 26.686 140.795C25.19 140.795 24.1148 140.526 23.4603 139.988C22.9616 139.545 22.6811 138.864 22.6187 137.947C22.6187 137.63 22.6187 137.171 22.6187 136.57V119.905C22.6187 119.177 22.6343 118.639 22.6655 118.291C22.7278 117.911 22.8681 117.5 23.0863 117.056C23.5226 116.202 24.7381 115.774 26.7328 115.774C28.6028 115.774 29.7716 116.138 30.2391 116.866C30.5819 117.373 30.7533 117.895 30.7533 118.433C30.9091 118.212 31.1273 117.943 31.4078 117.626C31.7195 117.31 32.3584 116.882 33.3246 116.344C34.2908 115.806 35.1323 115.537 35.8491 115.537C36.5971 115.537 37.2204 115.585 37.7191 115.68C38.2178 115.743 38.7632 115.869 39.3554 116.059Z" fill="black"/>
<path d="M41.8687 128.309C41.8687 124.51 43.1777 121.377 45.7957 118.908C48.4137 116.439 51.4057 115.205 54.7718 115.205C58.1378 115.205 61.1142 116.439 63.7011 118.908C66.2879 121.345 67.5814 124.463 67.5814 128.261C67.5814 130.888 66.9113 133.23 65.5711 135.288C64.2309 137.314 62.5947 138.817 60.6623 139.798C58.7611 140.748 56.782 141.223 54.725 141.223C52.668 141.223 50.6733 140.716 48.741 139.703C46.8086 138.659 45.1724 137.139 43.8322 135.145C42.5232 133.12 41.8687 130.841 41.8687 128.309ZM51.6395 131.727C52.6368 132.487 53.6498 132.866 54.6783 132.866C55.7068 132.866 56.7353 132.471 57.7638 131.68C58.7923 130.888 59.3066 129.717 59.3066 128.166C59.3066 126.615 58.8235 125.46 57.8573 124.7C56.8911 123.941 55.847 123.561 54.725 123.561C53.603 123.561 52.5589 123.956 51.5927 124.748C50.6266 125.539 50.1435 126.71 50.1435 128.261C50.1435 129.78 50.6422 130.936 51.6395 131.727Z" fill="black"/>
<path d="M86.2164 137.662C85.0321 139.244 83.1465 140.036 80.5596 140.036C77.9727 140.036 75.5417 138.833 73.2665 136.427C71.0225 133.99 69.9005 131.157 69.9005 127.929C69.9005 124.7 71.0381 121.867 73.3133 119.43C75.5885 116.993 78.0818 115.774 80.7934 115.774C81.853 115.774 82.8192 115.98 83.6919 116.392C84.5646 116.772 85.1567 117.136 85.4684 117.484C85.8112 117.8 86.0761 118.101 86.2631 118.386C86.3567 117.5 86.6683 116.835 87.1982 116.392C87.7592 115.917 88.6474 115.68 89.8629 115.68C91.0784 115.68 91.9667 115.774 92.5277 115.964C93.0887 116.154 93.4783 116.487 93.6965 116.961C93.9458 117.405 94.086 117.8 94.1172 118.148C94.1795 118.497 94.2107 119.035 94.2107 119.763V139.418C94.2107 143.058 92.964 145.986 90.4707 148.202C87.9773 150.449 85.1723 151.573 82.0556 151.573C79.6869 151.573 77.4273 150.987 75.2768 149.816C73.1263 148.645 72.051 147.585 72.051 146.635C72.051 145.401 72.5185 144.309 73.4535 143.359C74.0457 142.694 74.4976 142.235 74.8093 141.982C75.1521 141.729 75.5417 141.602 75.9781 141.602C76.4144 141.602 76.8663 141.792 77.3338 142.172C78.8298 143.343 80.4505 143.929 82.1959 143.929C83.3802 143.929 84.3464 143.454 85.0944 142.504C85.8424 141.555 86.2164 140.415 86.2164 139.086V137.662ZM77.8948 127.976C77.8948 128.989 78.2844 129.907 79.0636 130.73C79.8739 131.553 80.8401 131.964 81.9621 131.964C83.1153 131.964 84.0659 131.553 84.8139 130.73C85.5619 129.875 85.9359 128.957 85.9359 127.976C85.9359 126.963 85.5775 126.03 84.8606 125.175C84.1438 124.289 83.1776 123.846 81.9621 123.846C80.7466 123.846 79.7648 124.273 79.0168 125.128C78.2688 125.982 77.8948 126.932 77.8948 127.976Z" fill="black"/>
<path d="M113.564 137.662C112.379 139.244 110.494 140.036 107.907 140.036C105.32 140.036 102.889 138.833 100.614 136.427C98.3697 133.99 97.2477 131.157 97.2477 127.929C97.2477 124.7 98.3852 121.867 100.66 119.43C102.936 116.993 105.429 115.774 108.14 115.774C109.2 115.774 110.166 115.98 111.039 116.392C111.912 116.772 112.504 117.136 112.816 117.484C113.158 117.8 113.423 118.101 113.61 118.386C113.704 117.5 114.015 116.835 114.545 116.392C115.106 115.917 115.995 115.68 117.21 115.68C118.426 115.68 119.314 115.774 119.875 115.964C120.436 116.154 120.825 116.487 121.044 116.961C121.293 117.405 121.433 117.8 121.464 118.148C121.527 118.497 121.558 119.035 121.558 119.763V139.418C121.558 143.058 120.311 145.986 117.818 148.202C115.324 150.449 112.519 151.573 109.403 151.573C107.034 151.573 104.774 150.987 102.624 149.816C100.473 148.645 99.3982 147.585 99.3982 146.635C99.3982 145.401 99.8657 144.309 100.801 143.359C101.393 142.694 101.845 142.235 102.156 141.982C102.499 141.729 102.889 141.602 103.325 141.602C103.762 141.602 104.213 141.792 104.681 142.172C106.177 143.343 107.798 143.929 109.543 143.929C110.727 143.929 111.694 143.454 112.442 142.504C113.19 141.555 113.564 140.415 113.564 139.086V137.662ZM105.242 127.976C105.242 128.989 105.632 129.907 106.411 130.73C107.221 131.553 108.187 131.964 109.309 131.964C110.462 131.964 111.413 131.553 112.161 130.73C112.909 129.875 113.283 128.957 113.283 127.976C113.283 126.963 112.925 126.03 112.208 125.175C111.491 124.289 110.525 123.846 109.309 123.846C108.094 123.846 107.112 124.273 106.364 125.128C105.616 125.982 105.242 126.932 105.242 127.976Z" fill="black"/>
<path d="M147.838 116.059C149.677 116.882 150.597 117.879 150.597 119.05C150.597 119.62 150.472 120.158 150.223 120.665C149.973 121.171 149.849 121.44 149.849 121.472L137.6 149.294C137.351 149.895 137.133 150.354 136.946 150.671C136.79 150.987 136.525 151.288 136.151 151.573C135.777 151.858 135.309 152 134.748 152C134.187 152 133.361 151.763 132.271 151.288C130.432 150.465 129.512 149.484 129.512 148.344C129.512 147.585 131.008 143.96 134 137.472L124.697 121.567C124.074 120.522 123.762 119.747 123.762 119.24C123.762 118.227 124.604 117.215 126.287 116.202C127.346 115.569 128.172 115.252 128.764 115.252C129.357 115.252 129.84 115.379 130.214 115.632C130.588 115.885 130.853 116.154 131.008 116.439C131.195 116.692 132.052 118.164 133.58 120.855C135.138 123.513 136.618 125.998 138.021 128.309C138.177 127.802 139.018 125.856 140.545 122.469C142.073 119.05 142.883 117.23 142.976 117.009C143.101 116.787 143.288 116.518 143.537 116.202C143.943 115.664 144.504 115.395 145.22 115.395C145.968 115.395 146.841 115.616 147.838 116.059Z" fill="black"/>
</svg>
